<svg xmlns="http://www.w3.org/2000/svg" width="24" height="24" viewBox="0 0 24 24" fill="none">
  <path d="M7 18C5.9 18 5 18.9 5 20S5.9 22 7 22 9 21.1 9 20 8.1 18 7 18ZM1 2V4H3L5.6 11.2L4.25 13.5C4.09 13.78 4 14.08 4 14.4C4 15.5 4.9 16.4 6 16.4H18V14.4H6.42C6.28 14.4 6.17 14.29 6.17 14.15L6.2 14.03L6.9 12.4H17.62L20.58 6.09C20.66 5.95 20.78 5.84 20.9 5.76C21.45 5.39 21.9 4.87 22 4.26C22.05 4.04 22 3.81 21.9 3.61L21.6 3H5.21L4.27 2H1ZM17 18C15.9 18 15 18.9 15 20S15.9 22 17 22 19 21.1 19 20 18.1 18 17 18Z" fill="#4A3F35"/>
</svg>
