<svg xmlns="http://www.w3.org/2000/svg" style="display:none">
  <symbol id="icon-logo" viewBox="0 0 40 40">
    <circle cx="20" cy="20" r="18" fill="#7c9a5e"/>
    <path d="M20 8 C15 8 12 12 12 17 C12 22 15 26 20 32 C25 26 28 22 28 17 C28 12 25 8 20 8Z" fill="#f4e4c1"/>
    <path d="M20 12 C17 12 15 15 15 18 C15 21 17 24 20 28 C23 24 25 21 25 18 C25 15 23 12 20 12Z" fill="#7c9a5e"/>
  </symbol>
  <symbol id="icon-cart" viewBox="0 0 24 24">
    <path d="M7 18c-1.1 0-1.99.9-1.99 2S5.9 22 7 22s2-.9 2-2-.9-2-2-2zM1 2v2h2l3.6 7.59-1.35 2.45c-.16.28-.25.61-.25.96 0 1.1.9 2 2 2h12v-2H7.42c-.14 0-.25-.11-.25-.25l.03-.12.9-1.63h7.45c.75 0 1.41-.41 1.75-1.03l3.58-6.49c.08-.14.12-.31.12-.48 0-.55-.45-1-1-1H5.21l-.94-2H1zm16 16c-1.1 0-1.99.9-1.99 2s.89 2 1.99 2 2-.9 2-2-.9-2-2-2z"/>
  </symbol>
  <symbol id="icon-phone" viewBox="0 0 24 24">
    <path d="M6.62 10.79c1.44 2.83 3.76 5.14 6.59 6.59l2.2-2.2c.27-.27.67-.36 1.02-.24 1.12.37 2.33.57 3.57.57.55 0 1 .45 1 1V20c0 .55-.45 1-1 1-9.39 0-17-7.61-17-17 0-.55.45-1 1-1h3.5c.55 0 1 .45 1 1 0 1.25.2 2.45.57 3.57.11.35.03.74-.25 1.02l-2.2 2.2z"/>
  </symbol>
  <symbol id="icon-email" viewBox="0 0 24 24">
    <path d="M20 4H4c-1.1 0-1.99.9-1.99 2L2 18c0 1.1.9 2 2 2h16c1.1 0 2-.9 2-2V6c0-1.1-.9-2-2-2zm0 4l-8 5-8-5V6l8 5 8-5v2z"/>
  </symbol>
  <symbol id="icon-location" viewBox="0 0 24 24">
    <path d="M12 2C8.13 2 5 5.13 5 9c0 5.25 7 13 7 13s7-7.75 7-13c0-3.87-3.13-7-7-7zm0 9.5c-1.38 0-2.5-1.12-2.5-2.5s1.12-2.5 2.5-2.5 2.5 1.12 2.5 2.5-1.12 2.5-2.5 2.5z"/>
  </symbol>
  <symbol id="icon-search" viewBox="0 0 24 24">
    <path d="M15.5 14h-.79l-.28-.27C15.41 12.59 16 11.11 16 9.5 16 5.91 13.09 3 9.5 3S3 5.91 3 9.5 5.91 16 9.5 16c1.61 0 3.09-.59 4.23-1.57l.27.28v.79l5 4.99L20.49 19l-4.99-5zm-6 0C7.01 14 5 11.99 5 9.5S7.01 5 9.5 5 14 7.01 14 9.5 11.99 14 9.5 14z"/>
  </symbol>
  <symbol id="icon-menu" viewBox="0 0 24 24">
    <path d="M3 18h18v-2H3v2zm0-5h18v-2H3v2zm0-7v2h18V6H3z"/>
  </symbol>
  <symbol id="icon-leaf" viewBox="0 0 24 24">
    <path d="M17 8C8 10 5.9 16.17 3.82 21.34l1.89.66.95-2.71c.48.14.98.22 1.5.22 2.48 0 4.71-1.05 6.24-2.72 1.54 1.26 2.48 3.25 2.48 5.42V22h2v-6.09c0-3.93-2.25-7.46-5.72-9.09L17 8z"/>
  </symbol>
  <symbol id="icon-heart" viewBox="0 0 24 24">
    <path d="M12 21.35l-1.45-1.32C5.4 15.36 2 12.28 2 8.5 2 5.42 4.42 3 7.5 3c1.74 0 3.41.81 4.5 2.09C13.09 3.81 14.76 3 16.5 3 19.58 3 22 5.42 22 8.5c0 3.78-3.4 6.86-8.55 11.54L12 21.35z"/>
  </symbol>
  <symbol id="icon-truck" viewBox="0 0 24 24">
    <path d="M20 8h-3V4H3c-1.1 0-2 .9-2 2v11h2c0 1.66 1.34 3 3 3s3-1.34 3-3h6c0 1.66 1.34 3 3 3s3-1.34 3-3h2v-5l-3-4zM6 18.5c-.83 0-1.5-.67-1.5-1.5s.67-1.5 1.5-1.5 1.5.67 1.5 1.5-.67 1.5-1.5 1.5zm13.5-9l1.96 2.5H17V9.5h2.5zm-1.5 9c-.83 0-1.5-.67-1.5-1.5s.67-1.5 1.5-1.5 1.5.67 1.5 1.5-.67 1.5-1.5 1.5z"/>
  </symbol>
  <symbol id="icon-payment" viewBox="0 0 24 24">
    <path d="M11 8v6h2v-4c0-1.1-.9-2-2-2zm8 2h-6c-.55 0-1 .45-1 1s.45 1 1 1h6c.55 0 1-.45 1-1s-.45-1-1-1zm-2 4c0-1.1-.9-2-2-2H7c-1.1 0-2 .9-2 2v6h2v-4h2v4h2v-6h2c1.1 0 2-.9 2-2zM4 18.5C4 16.56 5.56 15 7.5 15h9c1.94 0 3.5 1.56 3.5 3.5V19H4v-.5zM21 6h-2V4h-2v2h-2v2h2v2h2V8h2V6z"/>
  </symbol>
  <symbol id="icon-natural" viewBox="0 0 24 24">
    <path d="M17 8C8 10 5.9 16.17 3.82 21.34l1.89.66.95-2.71c.48.14.98.22 1.5.22 2.48 0 4.71-1.05 6.24-2.72 1.54 1.26 2.48 3.25 2.48 5.42V22h2v-6.09c0-3.93-2.25-7.46-5.72-9.09L17 8z"/>
  </symbol>
  <symbol id="icon-empty-cart" viewBox="0 0 24 24">
    <path d="M22.73 22.73L2.77 2.77 1.5 4.04l2.23 2.23L7 7l.78.78 2.48 2.48-2.2 2.2-2.04 2.04 1.06 1.06 19.5-19.5-1.27-1.27z"/>
  </symbol>
  <symbol id="icon-moon" viewBox="0 0 24 24">
    <path d="M12 3c-4.97 0-9 4.03-9 9s4.03 9 9 9 9-4.03 9-9c0-.46-.04-.92-.1-1.36-.98 1.37-2.58 2.26-4.4 2.26-3.03 0-5.5-2.47-5.5-5.5 0-1.82.89-3.42 2.26-4.4-.44-.06-.9-.1-1.36-.1z"/>
  </symbol>
  <symbol id="icon-fire" viewBox="0 0 24 24">
    <path d="M13.5.67s.74 2.65.74 4.8c0 2.06-1.35 3.73-3.41 3.73-2.07 0-3.63-1.67-3.63-3.73l.03-.36C5.21 7.51 4 10.62 4 14c0 4.42 3.58 8 8 8s8-3.58 8-8C20 8.61 17.41 3.8 13.5.67zM11.71 19c-1.78 0-3.22-1.4-3.22-3.14 0-1.62 1.05-2.76 2.81-3.12 1.77-.36 3.6-1.21 4.62-2.58.39 1.29.59 2.65.59 4.04 0 2.65-2.15 4.8-4.8 4.8z"/>
  </symbol>
  <symbol id="icon-shield" viewBox="0 0 24 24">
    <path d="M12 1L3 5v6c0 5.55 3.84 10.74 9 12 5.16-1.26 9-6.45 9-12V5l-9-4zm0 10.99h7c-.53 4.12-3.28 7.79-7 8.94V12H5V6.3l7-3.11v8.8z"/>
  </symbol>
  <symbol id="icon-star" viewBox="0 0 24 24">
    <path d="M12 17.27L18.18 21l-1.64-7.03L22 9.24l-7.19-.61L12 2 9.19 8.63 2 9.24l5.46 4.73L5.82 21z"/>
  </symbol>
</svg>
